<svg width="24" height="26.666666666666664" viewBox="0 0 18 20" fill="none"><path fill-rule="evenodd" clip-rule="evenodd" d="M15.882 9.285c.266.33.535.69.653.94l.024.052c.263.555.5 1.054.843 2.069.354 1.046.917 2.977 0 3.31-.867.313-2.035-1.59-2.035-1.59 0 1.147-.64 2.645-2.02 3.726.51.042 1.204.215 1.609.473.405.259.405.628.183.866-.221.238-1.562.23-3.057.217-1.283-.012-2.615-.081-3.239-.146-.656.068-2.06.15-3.368.155-1.385.006-2.467 0-2.745-.226-.277-.226-.228-.593.079-.83s.993-.445 1.53-.507c-1.382-1.083-2.02-2.58-2.02-3.729 0 0-.67 1.896-1.687 1.59-.754-.227-.57-2.271-.275-3.31.24-.839.43-1.27.647-1.758l.158-.362c.107-.25.32-.556.546-.844 1.206.828 2.701 1.109 2.701 1.109l-.15 1.149a.904.904 0 001.787.264l.19-1.15c5.005.475 8.26-.769 9.646-1.468zm-.692-1.14c.003-.115.005-.237.005-.325 0-3.601-1.835-7.22-6.35-7.22C4.327.6 2.49 4.219 2.49 7.819c0 .085.002.201.004.312.68.23 6.853 2.204 12.696.014z" fill="#000"/></svg>