<svg width="30.31578947368421" height="24" viewBox="0 0 24 19" fill="none"><path fill-rule="evenodd" clip-rule="evenodd" d="M16.258 3.769c.299.47.538.977.712 1.517.07.22 0 .657-.615.628a3.53 3.53 0 00-.939.053c-.06.01-.122.022-.193.032-3.366.514-5.909 3.282-5.909 6.632 0 .286.02.568.058.844a6.737 6.737 0 00.146.75c.01.04.042.155-.146.228-.17.066-.505.059-.667.055h-.067c-.354 0-.733-.038-1.036-.132l-1.308.48a1.584 1.584 0 01-2.12-1.658C2.112 11.71.879 9.792.879 7.455.879 3.408 4.586.221 9.112.221c2.271 0 4.299.728 5.767 1.973.54.459 1.006.987 1.38 1.575zM7.358 4.9a1.152 1.152 0 11-2.304 0 1.152 1.152 0 012.304 0zm5.543 0a1.152 1.152 0 11-2.304 0 1.152 1.152 0 012.304 0z" fill="#000"/><path fill-rule="evenodd" clip-rule="evenodd" d="M10.381 12.592c0-3.127 2.837-5.676 6.44-5.676 3.402 0 6.43 2.549 6.43 5.676 0 1.764-.937 3.23-2.547 4.407a1.182 1.182 0 01-1.471 1.42l-.746-.212c-.297.061-.912.061-1.666.061-3.603 0-6.44-2.543-6.44-5.676zm5.112-1.825a.972.972 0 11-1.944 0 .972.972 0 011.944 0zm4.477 0a.972.972 0 11-1.943 0 .972.972 0 011.943 0z" fill="#000"/></svg>